<svg width="24" height="24" viewBox="0 0 24 24" fill="none" xmlns="http://www.w3.org/2000/svg">
<path d="M9.69245 21.4952L9.31168 18.4491C9.04373 18.3593 8.76905 18.2337 8.48763 18.0721C8.20621 17.9106 7.9546 17.7375 7.7328 17.5529L4.91165 18.7452L2.604 14.7452L5.04438 12.901C5.0213 12.7523 5.00495 12.6029 4.99533 12.4529C4.98571 12.3029 4.9809 12.1536 4.9809 12.0049C4.9809 11.8626 4.98571 11.718 4.99533 11.5712C5.00495 11.4244 5.0213 11.2638 5.04438 11.0895L2.604 9.24525L4.91165 5.26452L7.72318 6.44722C7.96421 6.25619 8.22159 6.0815 8.4953 5.92317C8.76904 5.76482 9.03795 5.63757 9.30205 5.54142L9.69245 2.49527H14.3078L14.6885 5.55105C14.9885 5.66001 15.26 5.78725 15.503 5.93277C15.7459 6.07829 15.9911 6.24977 16.2386 6.44722L19.0886 5.26452L21.3962 9.24525L18.9174 11.1183C18.9533 11.2798 18.9728 11.4308 18.976 11.5712C18.9792 11.7116 18.9808 11.8529 18.9808 11.9952C18.9808 12.1311 18.9776 12.2693 18.9712 12.4097C18.9648 12.5501 18.9417 12.7106 18.902 12.8914L21.3616 14.7452L19.0539 18.7452L16.2386 17.5433C15.9911 17.7407 15.7386 17.9154 15.4809 18.0673C15.2232 18.2193 14.959 18.3433 14.6885 18.4394L14.3078 21.4952H9.69245ZM11.0001 19.9952H12.9655L13.3251 17.3164C13.8354 17.1831 14.3017 16.9936 14.7241 16.7481C15.1466 16.5026 15.5539 16.1869 15.9463 15.801L18.4309 16.8452L19.4155 15.1452L17.2463 13.5106C17.3296 13.2517 17.3863 12.9978 17.4165 12.7491C17.4466 12.5004 17.4616 12.2491 17.4616 11.9952C17.4616 11.735 17.4466 11.4837 17.4165 11.2414C17.3863 10.9991 17.3296 10.7517 17.2463 10.4991L19.4347 8.84525L18.4501 7.14525L15.9366 8.20487C15.602 7.84717 15.2011 7.53115 14.7338 7.2568C14.2664 6.98243 13.7937 6.7882 13.3155 6.6741L13.0001 3.99525H11.0155L10.6847 6.66447C10.1745 6.78499 9.7033 6.9696 9.27125 7.21832C8.8392 7.46704 8.42703 7.78755 8.03473 8.17987L5.5501 7.14525L4.56548 8.84525L6.7251 10.4549C6.64177 10.692 6.58344 10.9388 6.5501 11.1952C6.51677 11.4517 6.5001 11.7215 6.5001 12.0049C6.5001 12.2651 6.51677 12.5202 6.5501 12.7702C6.58344 13.0202 6.63856 13.267 6.71548 13.5106L4.56548 15.1452L5.5501 16.8452L8.0251 15.7952C8.40459 16.185 8.81035 16.5042 9.2424 16.7529C9.67445 17.0017 10.152 17.1927 10.6751 17.326L11.0001 19.9952ZM12.0116 14.9952C12.8437 14.9952 13.5517 14.7032 14.1357 14.1193C14.7196 13.5353 15.0116 12.8273 15.0116 11.9952C15.0116 11.1632 14.7196 10.4552 14.1357 9.87122C13.5517 9.28725 12.8437 8.99527 12.0116 8.99527C11.1693 8.99527 10.4588 9.28725 9.87993 9.87122C9.3011 10.4552 9.01168 11.1632 9.01168 11.9952C9.01168 12.8273 9.3011 13.5353 9.87993 14.1193C10.4588 14.7032 11.1693 14.9952 12.0116 14.9952Z" fill="#192222"/>
</svg>
