<svg width="151" height="24" viewBox="0 0 151 24" fill="none" xmlns="http://www.w3.org/2000/svg">
<mask id="mask0_32_1031" style="mask-type:alpha" maskUnits="userSpaceOnUse" x="0" y="-1" width="24" height="25">
<rect y="-0.00476074" width="24" height="24" fill="#D9D9D9"/>
</mask>
<g mask="url(#mask0_32_1031)">
</g>
<g clip-path="url(#clip0_32_1031)">
<path d="M17.5122 13.9814C18.4526 13.9814 19.1128 13.73 19.6306 13.2116C20.1483 12.6938 20.3997 12.069 20.3997 11.0932V6.00201C20.3997 4.7827 20.0853 4.00308 19.4383 3.35601C18.7912 2.70895 18.0116 2.39526 16.7923 2.39526H14.624V11.0932C14.624 12.069 14.8754 12.6938 15.3932 13.2116C15.9109 13.7294 16.5711 13.9814 17.5115 13.9814H17.5122Z" fill="#8C9090"/>
<path d="M6.55303 8.20692H13.5283V5.31942C13.5283 4.34357 13.277 3.71882 12.7592 3.20104C12.2414 2.68326 11.6166 2.43192 10.6408 2.43192H6.55303C5.57718 2.43192 4.95243 2.68326 4.43465 3.20104C3.91687 3.71882 3.66553 4.37901 3.66553 5.31942C3.66553 6.25982 3.91687 6.92001 4.43465 7.43779C4.95243 7.95557 5.57718 8.20692 6.55303 8.20692Z" fill="#8C9090"/>
<path d="M10.6775 9.25693H6.48735C5.54695 9.25693 4.88676 9.50827 4.36898 10.0261C3.8512 10.5438 3.59985 11.204 3.59985 12.1444V17.1844C3.59985 18.3598 3.9142 19.1847 4.56126 19.8317C5.20832 20.4788 6.03323 20.7931 7.20857 20.7931H13.565V12.1444C13.565 11.204 13.3137 10.5445 12.7959 10.0261C12.2781 9.50827 11.6179 9.25693 10.6775 9.25693Z" fill="#8C9090"/>
<path d="M19.6307 15.7709C19.1483 15.2886 18.4527 15.0018 17.5123 15.0018H17.4854C16.545 15.0018 15.8494 15.2886 15.367 15.7709C14.8847 16.2533 14.5979 16.9489 14.5979 17.8893V17.9162C14.5979 18.8921 14.8492 19.5168 15.367 20.0346C15.8848 20.5524 16.5096 20.8037 17.4854 20.8037H20.3998V17.8893C20.3998 16.9489 20.113 16.2533 19.6307 15.7709Z" fill="#8C9090"/>
</g>
<path d="M36 23.9952V-0.00476111" stroke="#8C9090"/>
<path d="M48.496 13.6392H50.896C50.912 15.1912 51.952 15.9752 53.216 15.9752C54.192 15.9752 55.248 15.4632 55.248 14.5672C55.248 13.5272 54.288 13.3032 53.504 13.1272L51.872 12.7272C49.968 12.2792 48.848 11.2872 48.848 9.76724C48.848 7.70324 50.688 6.66324 53.024 6.66324C55.488 6.66324 57.36 7.95924 57.568 10.2312H55.2C55.12 9.11124 54.208 8.34324 53.024 8.34324C52.064 8.34324 51.168 8.77524 51.168 9.62324C51.168 10.3752 51.808 10.7752 52.768 10.9672L54.528 11.3832C56.352 11.7832 57.584 12.6952 57.584 14.4392C57.584 16.4552 55.6 17.7032 53.184 17.6872C50.896 17.6712 48.624 16.6472 48.496 13.6392ZM63.1749 15.6552V17.4792C62.9829 17.5272 62.4549 17.6232 61.9589 17.6232C60.1669 17.6232 59.3509 16.5672 59.3509 14.7272V11.0632H58.1509V9.49524H59.3509V7.17524H61.5429V9.49524H63.0789V11.0632H61.5429V14.6792C61.5429 15.3992 61.7669 15.7512 62.4229 15.7512C62.7269 15.7512 63.0629 15.6872 63.1749 15.6552ZM71.7481 9.49524V17.4952H69.5401V17.3352C69.5401 16.9192 69.6201 16.6472 69.7801 16.2952L69.5241 16.2152C69.1881 17.0632 68.2761 17.6872 66.9321 17.6872C65.5241 17.6872 64.3401 16.9192 64.3401 14.9352V9.49524H66.5321V14.5672C66.5321 15.4952 67.0761 15.9752 67.9561 15.9752H67.9881C68.8521 15.9752 69.5721 15.3512 69.5721 14.4232V9.49524H71.7481ZM76.6195 17.6872C74.6835 17.6872 73.2115 16.0872 73.2115 13.5112C73.2115 10.9352 74.6515 9.30324 76.6195 9.30324C78.0115 9.30324 78.8435 10.0712 79.1475 10.8072L79.3875 10.7272C79.2275 10.2792 79.1795 9.92724 79.1795 9.51124V6.37524H81.3715V17.4952H79.1795V17.3672C79.1795 16.9992 79.2595 16.6312 79.3875 16.2792L79.1475 16.1992C78.8275 16.9672 77.9475 17.6872 76.6195 17.6872ZM77.3235 16.0552H77.4195C78.6835 16.0552 79.2755 15.0152 79.2755 13.5112C79.2755 12.0072 78.6835 10.9352 77.4195 10.9352H77.3235C76.0755 10.9352 75.4835 12.0072 75.4835 13.5112C75.4835 15.0152 76.0755 16.0552 77.3235 16.0552ZM84.3749 8.50324C83.6869 8.50324 83.1269 7.97524 83.1269 7.30324C83.1269 6.64724 83.6869 6.10324 84.3749 6.10324C85.0629 6.10324 85.6069 6.64724 85.6069 7.30324C85.6069 7.97524 85.0629 8.50324 84.3749 8.50324ZM83.2709 17.4952V9.49524H85.4629V17.4952H83.2709ZM91.0173 9.30324C93.3853 9.30324 95.1293 10.8392 95.1293 13.4632C95.1293 16.0872 93.3853 17.6872 91.0173 17.6872C88.6173 17.6872 86.9053 16.0872 86.9053 13.4632C86.9053 10.8392 88.6173 9.30324 91.0173 9.30324ZM90.9533 16.0712H91.0653C92.3293 16.0712 92.8733 14.9032 92.8733 13.4792C92.8733 12.0712 92.3293 10.9192 91.0653 10.9192H90.9533C89.7053 10.9192 89.1453 12.1032 89.1453 13.4792C89.1453 14.8552 89.6893 16.0712 90.9533 16.0712ZM101.116 17.4952V6.85524H105.244C107.5 6.85524 108.908 7.79924 108.908 10.0232C108.908 12.2472 107.292 13.2072 105.244 13.2072H102.524V17.4952H101.116ZM102.524 11.9912H105.436C106.732 11.9912 107.436 11.3832 107.436 10.0232C107.436 8.66324 106.732 8.07124 105.436 8.07124H102.524V11.9912ZM109.945 17.4952V6.37524H111.353V17.4952H109.945ZM120.083 9.49524V17.4952H118.627V17.3032C118.627 16.9192 118.675 16.6952 118.835 16.3432L118.627 16.2952C118.355 17.0792 117.475 17.6872 116.131 17.6872C114.819 17.6872 113.427 17.0952 113.427 14.9352V9.49524H114.835V14.7752C114.835 15.9272 115.507 16.4712 116.611 16.4712H116.643C117.779 16.4712 118.675 15.6872 118.675 14.5352V9.49524H120.083ZM121.783 17.7672H123.239C123.383 19.0632 124.167 19.6232 125.383 19.6232H125.495C126.727 19.6232 127.751 18.9512 127.751 17.4312C127.751 16.8712 127.799 16.1032 127.863 15.7832L127.671 15.7192C127.319 16.4712 126.343 17.1112 125.143 17.1112C122.999 17.1112 121.847 15.4152 121.847 13.1752C121.847 10.9512 123.015 9.30324 125.159 9.30324C126.599 9.30324 127.367 9.99124 127.655 10.6632L127.847 10.5992C127.687 10.1512 127.639 10.0232 127.639 9.57524V9.49524H129.095V17.4152C129.095 19.7832 127.655 20.8072 125.415 20.8072C122.711 20.8072 121.943 19.3512 121.783 17.7672ZM125.543 15.9272H125.671C127.143 15.9272 127.863 14.8552 127.863 13.2712C127.863 11.6392 127.175 10.5032 125.671 10.5032H125.543C124.055 10.5032 123.287 11.6072 123.287 13.2232C123.287 14.8392 124.055 15.9272 125.543 15.9272ZM131.656 8.24724C131.128 8.24724 130.712 7.83124 130.712 7.30324C130.712 6.79124 131.128 6.37524 131.656 6.37524C132.168 6.37524 132.568 6.79124 132.568 7.30324C132.568 7.83124 132.168 8.24724 131.656 8.24724ZM130.936 17.4952V9.49524H132.344V17.4952H130.936ZM134.455 17.4952V9.49524H135.911V9.68724C135.911 10.0712 135.863 10.2152 135.703 10.6312L135.911 10.6952C136.247 9.91124 137.159 9.30324 138.503 9.30324C139.815 9.30324 141.319 9.78324 141.319 12.0072V17.4952H139.911V12.2152C139.911 10.9832 139.127 10.5192 138.023 10.5192H137.991C136.855 10.5192 135.863 11.2072 135.863 12.4552V17.4952H134.455ZM142.806 14.7112H144.278C144.342 15.7992 145.142 16.5032 146.262 16.5032C147.254 16.5032 148.022 16.0872 148.022 15.3352C148.022 14.6792 147.558 14.3272 146.63 14.1032L145.062 13.7352C143.702 13.4152 143.158 12.6632 143.158 11.6072C143.158 10.1512 144.47 9.30324 146.214 9.30324C148.038 9.30324 149.398 10.4072 149.446 12.1192H147.958C147.878 10.9512 146.982 10.4872 146.15 10.4872C145.222 10.4872 144.614 10.8872 144.614 11.5592C144.614 12.0072 144.838 12.4232 145.622 12.5992L147.27 12.9832C148.598 13.2872 149.478 13.9912 149.478 15.2232C149.478 16.7752 148.262 17.6872 146.262 17.6872C143.862 17.6872 142.822 16.1512 142.806 14.7112Z" fill="#8C9090"/>
<defs>
<clipPath id="clip0_32_1031">
<rect width="16.8" height="18.4406" fill="white" transform="translate(3.59985 2.39526)"/>
</clipPath>
</defs>
</svg>
