<svg width="151" height="24" viewBox="0 0 151 24" fill="none" xmlns="http://www.w3.org/2000/svg">
    <path d="M17.5123 13.9861C18.4527 13.9861 19.1129 13.7348 19.6307 13.2163C20.1485 12.6986 20.3998 12.0738 20.3998 11.098V6.00677C20.3998 4.78746 20.0855 4.00784 19.4384 3.36078C18.7914 2.71371 18.0117 2.40002 16.7924 2.40002H14.6242V11.098C14.6242 12.0738 14.8755 12.6986 15.3933 13.2163C15.9111 13.7341 16.5713 13.9861 17.5117 13.9861H17.5123Z" fill="#8C9090"></path>
    <path d="M6.55306 8.21165H13.5283V5.32415C13.5283 4.3483 13.277 3.72355 12.7592 3.20577C12.2414 2.68799 11.6167 2.43665 10.6408 2.43665H6.55306C5.57721 2.43665 4.95246 2.68799 4.43468 3.20577C3.9169 3.72355 3.66556 4.38374 3.66556 5.32415C3.66556 6.26455 3.9169 6.92474 4.43468 7.44252C4.95246 7.9603 5.57721 8.21165 6.55306 8.21165Z" fill="#8C9090"></path>
    <path d="M10.6776 9.26172H6.48744C5.54704 9.26172 4.88685 9.51306 4.36907 10.0308C3.85129 10.5486 3.59995 11.2088 3.59995 12.1492V17.1892C3.59995 18.3646 3.91429 19.1895 4.56135 19.8365C5.20842 20.4836 6.03332 20.7979 7.20866 20.7979H13.5651V12.1492C13.5651 11.2088 13.3138 10.5493 12.796 10.0308C12.2782 9.51306 11.618 9.26172 10.6776 9.26172Z" fill="#8C9090"></path>
    <path d="M19.6308 15.7757C19.1485 15.2934 18.4528 15.0066 17.5124 15.0066H17.4855C16.5451 15.0066 15.8495 15.2934 15.3671 15.7757C14.8848 16.2581 14.598 16.9537 14.598 17.8941V17.921C14.598 18.8968 14.8494 19.5216 15.3671 20.0394C15.8849 20.5572 16.5097 20.8085 17.4855 20.8085H20.3999V17.8941C20.3999 16.9537 20.1131 16.2581 19.6308 15.7757Z" fill="#8C9090"></path>
    <path d="M36 24V-3.65078e-07" stroke="#8C9090"></path>
    <path d="M48.496 13.644H50.896C50.912 15.196 51.952 15.98 53.216 15.98C54.192 15.98 55.248 15.468 55.248 14.572C55.248 13.532 54.288 13.308 53.504 13.132L51.872 12.732C49.968 12.284 48.848 11.292 48.848 9.772C48.848 7.708 50.688 6.668 53.024 6.668C55.488 6.668 57.36 7.964 57.568 10.236H55.2C55.12 9.116 54.208 8.348 53.024 8.348C52.064 8.348 51.168 8.78 51.168 9.628C51.168 10.38 51.808 10.78 52.768 10.972L54.528 11.388C56.352 11.788 57.584 12.7 57.584 14.444C57.584 16.46 55.6 17.708 53.184 17.692C50.896 17.676 48.624 16.652 48.496 13.644ZM63.1749 15.66V17.484C62.9829 17.532 62.4549 17.628 61.9589 17.628C60.1669 17.628 59.3509 16.572 59.3509 14.732V11.068H58.1509V9.5H59.3509V7.18H61.5429V9.5H63.0789V11.068H61.5429V14.684C61.5429 15.404 61.7669 15.756 62.4229 15.756C62.7269 15.756 63.0629 15.692 63.1749 15.66ZM71.7481 9.5V17.5H69.5401V17.34C69.5401 16.924 69.6201 16.652 69.7801 16.3L69.5241 16.22C69.1881 17.068 68.2761 17.692 66.9321 17.692C65.5241 17.692 64.3401 16.924 64.3401 14.94V9.5H66.5321V14.572C66.5321 15.5 67.0761 15.98 67.9561 15.98H67.9881C68.8521 15.98 69.5721 15.356 69.5721 14.428V9.5H71.7481ZM76.6195 17.692C74.6835 17.692 73.2115 16.092 73.2115 13.516C73.2115 10.94 74.6515 9.308 76.6195 9.308C78.0115 9.308 78.8435 10.076 79.1475 10.812L79.3875 10.732C79.2275 10.284 79.1795 9.932 79.1795 9.516V6.38H81.3715V17.5H79.1795V17.372C79.1795 17.004 79.2595 16.636 79.3875 16.284L79.1475 16.204C78.8275 16.972 77.9475 17.692 76.6195 17.692ZM77.3235 16.06H77.4195C78.6835 16.06 79.2755 15.02 79.2755 13.516C79.2755 12.012 78.6835 10.94 77.4195 10.94H77.3235C76.0755 10.94 75.4835 12.012 75.4835 13.516C75.4835 15.02 76.0755 16.06 77.3235 16.06ZM84.3749 8.508C83.6869 8.508 83.1269 7.98 83.1269 7.308C83.1269 6.652 83.6869 6.108 84.3749 6.108C85.0629 6.108 85.6069 6.652 85.6069 7.308C85.6069 7.98 85.0629 8.508 84.3749 8.508ZM83.2709 17.5V9.5H85.4629V17.5H83.2709ZM91.0173 9.308C93.3853 9.308 95.1293 10.844 95.1293 13.468C95.1293 16.092 93.3853 17.692 91.0173 17.692C88.6173 17.692 86.9053 16.092 86.9053 13.468C86.9053 10.844 88.6173 9.308 91.0173 9.308ZM90.9533 16.076H91.0653C92.3293 16.076 92.8733 14.908 92.8733 13.484C92.8733 12.076 92.3293 10.924 91.0653 10.924H90.9533C89.7053 10.924 89.1453 12.108 89.1453 13.484C89.1453 14.86 89.6893 16.076 90.9533 16.076ZM101.116 17.5V6.86H105.244C107.5 6.86 108.908 7.804 108.908 10.028C108.908 12.252 107.292 13.212 105.244 13.212H102.524V17.5H101.116ZM102.524 11.996H105.436C106.732 11.996 107.436 11.388 107.436 10.028C107.436 8.668 106.732 8.076 105.436 8.076H102.524V11.996ZM109.945 17.5V6.38H111.353V17.5H109.945ZM120.083 9.5V17.5H118.627V17.308C118.627 16.924 118.675 16.7 118.835 16.348L118.627 16.3C118.355 17.084 117.475 17.692 116.131 17.692C114.819 17.692 113.427 17.1 113.427 14.94V9.5H114.835V14.78C114.835 15.932 115.507 16.476 116.611 16.476H116.643C117.779 16.476 118.675 15.692 118.675 14.54V9.5H120.083ZM121.783 17.772H123.239C123.383 19.068 124.167 19.628 125.383 19.628H125.495C126.727 19.628 127.751 18.956 127.751 17.436C127.751 16.876 127.799 16.108 127.863 15.788L127.671 15.724C127.319 16.476 126.343 17.116 125.143 17.116C122.999 17.116 121.847 15.42 121.847 13.18C121.847 10.956 123.015 9.308 125.159 9.308C126.599 9.308 127.367 9.996 127.655 10.668L127.847 10.604C127.687 10.156 127.639 10.028 127.639 9.58V9.5H129.095V17.42C129.095 19.788 127.655 20.812 125.415 20.812C122.711 20.812 121.943 19.356 121.783 17.772ZM125.543 15.932H125.671C127.143 15.932 127.863 14.86 127.863 13.276C127.863 11.644 127.175 10.508 125.671 10.508H125.543C124.055 10.508 123.287 11.612 123.287 13.228C123.287 14.844 124.055 15.932 125.543 15.932ZM131.656 8.252C131.128 8.252 130.712 7.836 130.712 7.308C130.712 6.796 131.128 6.38 131.656 6.38C132.168 6.38 132.568 6.796 132.568 7.308C132.568 7.836 132.168 8.252 131.656 8.252ZM130.936 17.5V9.5H132.344V17.5H130.936ZM134.455 17.5V9.5H135.911V9.692C135.911 10.076 135.863 10.22 135.703 10.636L135.911 10.7C136.247 9.916 137.159 9.308 138.503 9.308C139.815 9.308 141.319 9.788 141.319 12.012V17.5H139.911V12.22C139.911 10.988 139.127 10.524 138.023 10.524H137.991C136.855 10.524 135.863 11.212 135.863 12.46V17.5H134.455ZM142.806 14.716H144.278C144.342 15.804 145.142 16.508 146.262 16.508C147.254 16.508 148.022 16.092 148.022 15.34C148.022 14.684 147.558 14.332 146.63 14.108L145.062 13.74C143.702 13.42 143.158 12.668 143.158 11.612C143.158 10.156 144.47 9.308 146.214 9.308C148.038 9.308 149.398 10.412 149.446 12.124H147.958C147.878 10.956 146.982 10.492 146.15 10.492C145.222 10.492 144.614 10.892 144.614 11.564C144.614 12.012 144.838 12.428 145.622 12.604L147.27 12.988C148.598 13.292 149.478 13.996 149.478 15.228C149.478 16.78 148.262 17.692 146.262 17.692C143.862 17.692 142.822 16.156 142.806 14.716Z" fill="#8C9090"></path>
    </svg>